<svg width="375" height="1556" viewBox="0 0 375 1556" fill="none" xmlns="http://www.w3.org/2000/svg">
<g clip-path="url(#clip0_1072_9549)">
<g opacity="0.2">
<path d="M486.372 1067.73H-111.141M-370.178 1251.11H745.409" stroke="#120833" stroke-width="1.18585" stroke-miterlimit="10"/>
<path d="M683.939 1207.59H-308.709" stroke="#120833" stroke-width="1.18585" stroke-miterlimit="10"/>
<path d="M634.668 1172.71H-259.441" stroke="#120833" stroke-width="1.18585" stroke-miterlimit="10"/>
<path d="M594.301 1144.12H-219.069" stroke="#120833" stroke-width="1.18585" stroke-miterlimit="10"/>
<path d="M560.617 1120.29H-185.386" stroke="#120833" stroke-width="1.18585" stroke-miterlimit="10"/>
<path d="M532.083 1100.09H-156.857" stroke="#120833" stroke-width="1.18585" stroke-miterlimit="10"/>
<path d="M507.601 1082.77H-132.369" stroke="#120833" stroke-width="1.18585" stroke-miterlimit="10"/>
<path d="M8.36901 1067.73L-147.062 1251.11" stroke="#120833" stroke-width="1.18585" stroke-miterlimit="10"/>
<path d="M68.1174 1067.73L-35.5101 1251.11" stroke="#120833" stroke-width="1.18585" stroke-miterlimit="10"/>
<path d="M127.861 1067.73L76.0574 1251.11" stroke="#120833" stroke-width="1.18585" stroke-miterlimit="10"/>
<path d="M187.604 1067.73V1251.11" stroke="#120833" stroke-width="1.18585" stroke-miterlimit="10"/>
<path d="M247.371 1067.73L299.174 1251.11" stroke="#120833" stroke-width="1.18585" stroke-miterlimit="10"/>
<path d="M307.115 1067.73L410.742 1251.11" stroke="#120833" stroke-width="1.18585" stroke-miterlimit="10"/>
<path d="M366.861 1067.73L522.291 1251.11" stroke="#120833" stroke-width="1.18585" stroke-miterlimit="10"/>
<path d="M934.673 1385.59H-559.441" stroke="#120833" stroke-width="1.18585" stroke-miterlimit="10"/>
<path d="M826.316 1309.6H-451.088" stroke="#120833" stroke-width="1.18585" stroke-miterlimit="10"/>
<path d="M77.3194 1253.02L-202.801 2236.61" stroke="#120833" stroke-width="1.18585" stroke-miterlimit="10"/>
<path d="M299.549 1253.02L570.332 2228.2" stroke="#120833" stroke-width="1.18585" stroke-miterlimit="10"/>
<path d="M-111.143 644.895H486.37M745.407 461.521H-370.18" stroke="#120833" stroke-width="1.18585" stroke-miterlimit="10"/>
<path d="M-309.898 505.039H683.942" stroke="#120833" stroke-width="1.18585" stroke-miterlimit="10"/>
<path d="M-259.443 539.914H634.666" stroke="#120833" stroke-width="1.18585" stroke-miterlimit="10"/>
<path d="M-219.071 568.502H594.299" stroke="#120833" stroke-width="1.18585" stroke-miterlimit="10"/>
<path d="M-185.389 592.342H560.614" stroke="#120833" stroke-width="1.18585" stroke-miterlimit="10"/>
<path d="M-156.859 612.549H532.081" stroke="#120833" stroke-width="1.18585" stroke-miterlimit="10"/>
<path d="M-132.371 629.863H507.598" stroke="#120833" stroke-width="1.18585" stroke-miterlimit="10"/>
<path d="M366.858 644.895L522.289 461.521" stroke="#120833" stroke-width="1.18585" stroke-miterlimit="10"/>
<path d="M307.112 644.895L410.74 461.521" stroke="#120833" stroke-width="1.18585" stroke-miterlimit="10"/>
<path d="M247.369 644.895L299.172 461.521" stroke="#120833" stroke-width="1.18585" stroke-miterlimit="10"/>
<path d="M187.602 644.895V461.521" stroke="#120833" stroke-width="1.18585" stroke-miterlimit="10"/>
<path d="M127.858 644.895L76.0551 461.521" stroke="#120833" stroke-width="1.18585" stroke-miterlimit="10"/>
<path d="M68.1151 644.895L-35.5124 461.521" stroke="#120833" stroke-width="1.18585" stroke-miterlimit="10"/>
<path d="M8.36901 644.895L-147.062 461.521" stroke="#120833" stroke-width="1.18585" stroke-miterlimit="10"/>
<path d="M-559.443 327.025H934.671" stroke="#120833" stroke-width="1.18585" stroke-miterlimit="10"/>
<path d="M-452.603 403.014H826.318" stroke="#120833" stroke-width="1.18585" stroke-miterlimit="10"/>
<path d="M187.625 459.748V221.902" stroke="#120833" stroke-width="1.18585" stroke-miterlimit="10"/>
</g>
</g>
<defs>
<clipPath id="clip0_1072_9549">
<rect width="1793" height="1556" fill="white" transform="translate(-709)"/>
</clipPath>
</defs>
</svg>
