<svg width="512" height="512" viewBox="0 0 20 20" fill="none" xmlns="http://www.w3.org/2000/svg">
<path d="M10.8333 7.50008H14.5833L14.1666 9.16675H10.8333V16.6667H9.16665V9.16675H5.83331V7.50008H9.16665V5.93989C9.16665 4.45402 9.3214 3.91521 9.6119 3.37201C9.9024 2.8288 10.3287 2.40248 10.8719 2.11197C11.4151 1.82146 11.9539 1.66675 13.4398 1.66675C13.8748 1.66675 14.256 1.70841 14.5833 1.79175V3.33341H13.4398C12.3367 3.33341 12.0008 3.39828 11.6579 3.58166C11.4051 3.71684 11.2167 3.90524 11.0816 4.15801C10.8981 4.50088 10.8333 4.83681 10.8333 5.93989V7.50008Z" fill="currentColor"/>
</svg>
