<svg width="512" height="512" viewBox="0 0 20 20" fill="none" xmlns="http://www.w3.org/2000/svg">
<path d="M10.0008 7.50008C8.61967 7.50008 7.50081 8.61933 7.50081 10.0001C7.50081 11.3812 8.62008 12.5001 10.0008 12.5001C11.3819 12.5001 12.5008 11.3808 12.5008 10.0001C12.5008 8.619 11.3816 7.50008 10.0008 7.50008ZM10.0008 5.83341C12.3012 5.83341 14.1675 7.69766 14.1675 10.0001C14.1675 12.3005 12.3032 14.1667 10.0008 14.1667C7.70042 14.1667 5.83415 12.3025 5.83415 10.0001C5.83415 7.69969 7.6984 5.83341 10.0008 5.83341ZM15.4175 5.62437C15.4175 6.19946 14.9502 6.66606 14.3758 6.66606C13.8007 6.66606 13.3342 6.19875 13.3342 5.62437C13.3342 5.05 13.8014 4.58341 14.3758 4.58341C14.9494 4.58269 15.4175 5.05 15.4175 5.62437ZM10.0008 3.33341C7.93875 3.33341 7.60265 3.33887 6.64356 3.38158C5.99012 3.41226 5.55211 3.50014 5.14513 3.65814C4.78346 3.79841 4.52257 3.9659 4.2446 4.24387C3.96556 4.52291 3.79836 4.78311 3.65866 5.14494C3.5003 5.55285 3.41244 5.99017 3.38231 6.64271C3.33919 7.56275 3.33415 7.88429 3.33415 10.0001C3.33415 12.0622 3.33961 12.3982 3.38231 13.3572C3.413 14.0104 3.501 14.4491 3.65861 14.8551C3.79925 15.2172 3.96708 15.4787 4.24371 15.7554C4.52386 16.0352 4.78482 16.2029 5.14322 16.3412C5.55516 16.5005 5.9929 16.5885 6.64343 16.6186C7.56348 16.6617 7.88502 16.6667 10.0008 16.6667C12.0629 16.6667 12.399 16.6612 13.358 16.6186C14.0097 16.588 14.4487 16.4997 14.8558 16.3422C15.217 16.202 15.4793 16.0336 15.7562 15.7572C16.0363 15.4766 16.2037 15.2162 16.3422 14.857C16.5011 14.4466 16.5892 14.0082 16.6193 13.3575C16.6624 12.4374 16.6675 12.1158 16.6675 10.0001C16.6675 7.93801 16.662 7.60192 16.6193 6.64289C16.5887 5.99096 16.5004 5.55132 16.3427 5.1444C16.2028 4.78373 16.0347 4.52204 15.757 4.24387C15.4775 3.96437 15.218 3.79752 14.8559 3.65793C14.4483 3.4997 14.0103 3.41171 13.3582 3.38159C12.4382 3.33846 12.1166 3.33341 10.0008 3.33341ZM10.0008 1.66675C12.2647 1.66675 12.5473 1.67508 13.4362 1.71675C14.323 1.75772 14.9279 1.898 15.4592 2.10425C16.0084 2.31606 16.4723 2.60216 16.9355 3.06536C17.398 3.52856 17.6842 3.99383 17.8967 4.54175C18.1022 5.07231 18.2425 5.67786 18.2842 6.56466C18.3237 7.45356 18.3342 7.73619 18.3342 10.0001C18.3342 12.264 18.3258 12.5466 18.2842 13.4355C18.2432 14.3223 18.1022 14.9272 17.8967 15.4584C17.6848 16.0077 17.398 16.4716 16.9355 16.9348C16.4723 17.3973 16.0063 17.6834 15.4592 17.8959C14.9279 18.1015 14.323 18.2417 13.4362 18.2834C12.5473 18.323 12.2647 18.3334 10.0008 18.3334C7.73692 18.3334 7.45428 18.3251 6.5654 18.2834C5.67859 18.2424 5.07442 18.1015 4.54248 17.8959C3.99386 17.6841 3.52928 17.3973 3.06609 16.9348C2.6029 16.4716 2.31748 16.0057 2.10498 15.4584C1.89873 14.9272 1.75915 14.3223 1.71748 13.4355C1.6779 12.5466 1.66748 12.264 1.66748 10.0001C1.66748 7.73619 1.67581 7.45356 1.71748 6.56466C1.75845 5.67716 1.89873 5.073 2.10498 4.54175C2.31678 3.99314 2.6029 3.52856 3.06609 3.06536C3.52928 2.60216 3.99456 2.31675 4.54248 2.10425C5.07373 1.898 5.6779 1.75841 6.5654 1.71675C7.45428 1.67716 7.73692 1.66675 10.0008 1.66675Z" fill="currentColor"/>
</svg>
