<svg width="512" height="512" viewBox="0 0 20 20" fill="none" xmlns="http://www.w3.org/2000/svg">
<path d="M10.0008 7.95846C10.7651 7.17781 11.7601 6.66675 12.9175 6.66675C15.4487 6.66675 17.5008 8.71875 17.5008 11.2501V17.5001H15.8342V11.2501C15.8342 9.63925 14.5283 8.33341 12.9175 8.33341C11.3067 8.33341 10.0008 9.63925 10.0008 11.2501V17.5001H8.33416V7.08341H10.0008V7.95846ZM4.16748 5.41675C3.47712 5.41675 2.91748 4.85711 2.91748 4.16675C2.91748 3.47639 3.47712 2.91675 4.16748 2.91675C4.85783 2.91675 5.41748 3.47639 5.41748 4.16675C5.41748 4.85711 4.85783 5.41675 4.16748 5.41675ZM3.33415 7.08341H5.00081V17.5001H3.33415V7.08341Z" fill="currentColor"/>
</svg>
