<svg width="72" height="36" viewBox="0 0 72 36" fill="none" xmlns="http://www.w3.org/2000/svg">
<g clip-path="url(#clip0_1847_10465)">
<g clip-path="url(#clip1_1847_10465)">
<path d="M15.0117 25.9827C15.2436 25.6515 15.6999 25.5705 16.0312 25.802C16.3626 26.034 16.4437 26.4911 16.2119 26.8225L11.5967 33.4153L11.3779 33.7278H2.17773L3.00098 32.5706L7.68945 25.9778C7.92397 25.6485 8.38137 25.5717 8.71094 25.8059C9.04027 26.0405 9.11717 26.4978 8.88281 26.8274L5.01758 32.2629H10.6152L15.0117 25.9827ZM32.3643 1.28932C32.9306 0.931376 33.707 1.33087 33.707 2.03639V31.1428C33.7068 31.8436 32.9391 32.2445 32.3721 31.8948L32.2617 31.8147L30.3603 30.2131C27.3731 27.6967 24.0096 25.664 20.3926 24.1897L19.3535 23.7659H8.36133V14.6819H9.82617V22.301H13.6357V17.0266H15.1006V22.301H18.7637V9.95045L19.207 9.76002L20.5293 9.19264L21.1865 8.9026C24.4572 7.42323 27.4988 5.47976 30.2168 3.13111L32.2539 1.37135L32.3643 1.28932ZM54.6572 30.1379H48.2109V23.6917H54.6572V30.1379ZM31.1748 4.23951C28.1619 6.84301 24.7663 8.96735 21.1074 10.5383L20.2285 10.9153V22.5403L20.9463 22.8333C24.705 24.3654 28.2004 26.478 31.3047 29.093L32.2422 29.8821V3.31666L31.1748 4.23951ZM49.6758 28.6731H53.1924V25.1565H49.6758V28.6731ZM39.6465 21.5637L44.2676 26.1838H47.626V27.6487H43.6602L38.8252 22.8137H35.3926V21.3489H39.4316L39.6465 21.5637ZM70.4814 25.7434H64.0352V19.2971H70.4814V25.7434ZM65.5 24.2786H69.0166V20.762H65.5V24.2786ZM15.1006 14.2424H13.6357V11.8987H3.30664V22.301H5.94434V23.7659H1.8418V10.4338H15.1006V14.2424ZM63.4492 11.386H59.9561L54.7256 16.9348L59.9453 22.1536H63.4512V23.6184H59.3379L59.124 23.4045L53.4053 17.6848H40.8125V16.22H53.3857L59.1064 10.1506L59.3232 9.92115H63.4492V11.386ZM39.5693 18.5647H36.0527V15.0481H39.5693V18.5647ZM70.4814 13.8762H64.0352V7.42994H70.4814V13.8762ZM65.5 12.4114H69.0166V8.89478H65.5V12.4114ZM47.626 7.42994H44.2676L39.6465 12.0501L39.4316 12.2649H35.3926V10.8001H38.8252L43.6602 5.9651H47.626V7.42994ZM54.6572 9.92017H48.2109V3.47389H54.6572V9.92017ZM49.6758 8.45533H53.1924V4.93873H49.6758V8.45533Z" fill="#120833"/>
</g>
</g>
<defs>
<clipPath id="clip0_1847_10465">
<rect width="71" height="36" fill="white" transform="translate(0.521484)"/>
</clipPath>
<clipPath id="clip1_1847_10465">
<rect width="70.1839" height="35.197" fill="white" transform="translate(1.20703 0.0947266)"/>
</clipPath>
</defs>
</svg>
