<svg width="166" height="48" viewBox="0 0 166 48" fill="none" xmlns="http://www.w3.org/2000/svg">
<g clip-path="url(#clip0_3021_3928)">
<mask id="mask0_3021_3928" style="mask-type:luminance" maskUnits="userSpaceOnUse" x="0" y="0" width="166" height="48">
<path d="M165.47 0H0.521484V48H165.47V0Z" fill="white"/>
</mask>
<g mask="url(#mask0_3021_3928)">
<path d="M107.096 48.0202H100.415L95.1041 40.2676V48.0202H89.6113V29.7109H95.1041V37.1006L100.053 29.7109H106.453L100.135 38.4532L107.096 48.0202Z" fill="white"/>
<path d="M123.572 42.379C123.572 45.5625 121.098 48.0202 115.605 48.0202H108.463V29.7109H115.506C120.075 29.7109 122.731 31.5419 122.731 34.6264C122.731 37.7109 121.725 37.447 120.537 38.0903C122.467 38.9151 123.556 40.4656 123.556 42.379H123.572ZM113.956 33.6367V37.0017H115.242C116.611 37.0017 117.354 36.3584 117.354 35.3522C117.354 34.346 116.628 33.6202 115.242 33.6202H113.956V33.6367ZM115.787 44.0285C117.156 44.0285 117.98 43.3027 117.98 42.2965C117.98 41.2903 117.156 40.5645 115.787 40.5645H114.055V44.1109L115.787 44.0285Z" fill="white"/>
<path d="M145.71 29.7109H151.467L145.611 48.0202H140.58L137.463 37.1831L134.345 48.0202H129.397L123.541 29.7109H129.298L132.135 40.1852L135.252 29.7109H139.92L143.038 40.1852L145.694 29.7109H145.71Z" fill="white"/>
<path d="M6.47612 35.447H4.6452L1.89056 32.1645V35.447H0.521484V28.1562H1.98953V31.3398L4.54623 28.1562H6.27819L3.3421 31.6202L6.45963 35.447H6.47612Z" fill="white"/>
<path d="M6.19727 32.8085C6.19727 31.159 7.56634 30.0703 9.03438 30.0703C10.5024 30.0703 11.8715 31.159 11.8715 32.8085C11.8715 34.4579 10.5024 35.5466 9.03438 35.5466C7.56634 35.5466 6.19727 34.4579 6.19727 32.8085ZM10.5849 32.8085C10.5849 31.9837 9.94159 31.3569 9.11685 31.3569C8.29211 31.3569 7.64881 32.0002 7.64881 32.8085C7.64881 33.6167 8.29211 34.26 9.11685 34.26C9.94159 34.26 10.5849 33.6167 10.5849 32.8085Z" fill="white"/>
<path d="M16.0763 30.0703V31.3404H15.433C14.7072 31.3404 14.1464 31.8847 14.1464 32.7095V35.4476H12.7773V30.1693H14.1464V30.7136C14.6083 30.2682 15.1526 30.0703 15.7959 30.0703H16.0763Z" fill="white"/>
<path d="M21.6525 33.2521H17.6278C17.8092 33.9779 18.2711 34.3408 18.9968 34.3408C19.7226 34.3408 19.9205 34.1593 20.1845 33.6975H21.5535C21.1906 34.6047 20.2669 35.4294 18.9968 35.4294C17.7267 35.4294 16.2422 34.3408 16.2422 32.6913C16.2422 31.0418 17.6113 29.9531 18.9968 29.9531C20.3824 29.9531 22.0154 31.4047 21.6525 33.2356V33.2521ZM17.6278 32.2624H20.2834C20.1845 31.6191 19.7391 31.1737 18.9144 31.1737C18.0896 31.1737 17.8092 31.5366 17.6278 32.2624Z" fill="white"/>
<path d="M26.4998 30.1693H27.8689V35.4476H26.4998V34.9033C26.038 35.3487 25.5761 35.5466 24.7514 35.5466C23.3823 35.5466 22.0957 34.4579 22.0957 32.8085C22.0957 31.159 23.3823 30.0703 24.7514 30.0703C26.1204 30.0703 26.038 30.2518 26.4998 30.7136V30.1693ZM26.4998 32.8085C26.4998 31.9837 25.8565 31.3569 25.0318 31.3569C24.207 31.3569 23.5637 32.0002 23.5637 32.8085C23.5637 33.6167 24.207 34.26 25.0318 34.26C25.8565 34.26 26.4998 33.6167 26.4998 32.8085Z" fill="white"/>
<path d="M5.65138 45.5578C5.65138 46.8279 4.72767 47.7517 2.99571 47.7517H0.521484V40.4609H2.81427C4.46375 40.4609 5.37097 41.1867 5.37097 42.3743C5.37097 43.562 5.00808 43.562 4.44726 43.8259C5.17303 44.0073 5.63489 44.6506 5.63489 45.5578H5.65138ZM1.98953 41.6486V43.3805H2.81427C3.54004 43.3805 3.91942 43.0176 3.91942 42.5558C3.91942 42.0939 3.55654 41.731 2.81427 41.731L1.98953 41.6321V41.6486ZM2.99571 46.4816C3.82045 46.4816 4.18334 46.0362 4.18334 45.5743C4.18334 45.1125 3.82045 44.6671 2.99571 44.6671H1.98953V46.498H2.99571V46.4816Z" fill="white"/>
<path d="M6.56055 47.6518V40.1797H7.92962V47.6518H6.56055Z" fill="white"/>
<path d="M8.85156 45.0155C8.85156 43.366 10.2206 42.2773 11.6887 42.2773C13.1567 42.2773 14.5258 43.366 14.5258 45.0155C14.5258 46.665 13.1567 47.7536 11.6887 47.7536C10.2206 47.7536 8.85156 46.7474 8.85156 45.0155ZM13.1402 45.0155C13.1402 44.1907 12.4969 43.5639 11.6722 43.5639C10.8474 43.5639 10.2041 44.2072 10.2041 45.0155C10.2041 45.8237 10.8474 46.467 11.6722 46.467C12.4969 46.467 13.1402 45.8237 13.1402 45.0155Z" fill="white"/>
<path d="M14.9707 45.0155C14.9707 43.366 16.3398 42.2773 17.8078 42.2773C19.2759 42.2773 20.1831 42.9206 20.5625 44.2897H19.0944C18.814 43.7454 18.3686 43.5639 17.8078 43.5639C16.9831 43.5639 16.3398 44.2072 16.3398 45.0155C16.3398 45.8237 16.9831 46.467 17.8078 46.467C18.6326 46.467 18.814 46.2031 19.0944 45.7413H20.5625C20.1996 47.1103 19.0119 47.7536 17.8078 47.7536C16.3398 47.8361 14.9707 46.7474 14.9707 45.0155Z" fill="white"/>
<path d="M26.404 47.6518H24.7545L22.7421 45.3756V47.6518H21.373V40.1797H22.7421V44.5508L24.672 42.357H26.2225L23.9297 44.9137L26.404 47.6518Z" fill="white"/>
<path d="M26.2207 45.0155C26.2207 43.366 27.5898 42.2773 29.0578 42.2773C30.5259 42.2773 31.4331 42.9206 31.8125 44.2897H30.3444C30.064 43.7454 29.6186 43.5639 29.0578 43.5639C28.2331 43.5639 27.5898 44.2072 27.5898 45.0155C27.5898 45.8237 28.2331 46.467 29.0578 46.467C29.8826 46.467 30.064 46.2031 30.3444 45.7413H31.8125C31.4496 47.1103 30.2619 47.7536 29.0578 47.7536C27.5898 47.8361 26.2207 46.7474 26.2207 45.0155Z" fill="white"/>
<path d="M37.568 44.5704V47.6714H36.199V44.8508C36.199 44.125 35.8361 43.5807 35.0938 43.5807C34.3515 43.5807 33.9062 44.125 33.9062 44.8508V47.6714H32.5371V40.1992H33.9062V42.8384C34.368 42.393 34.8299 42.1951 35.4567 42.1951C36.7433 42.2776 37.568 43.2838 37.568 44.5704Z" fill="white"/>
<path d="M42.701 42.3763H44.0701V47.6547H42.701V47.1103C42.2391 47.5557 41.7773 47.7536 40.9525 47.7536C39.5835 47.7536 38.2969 46.665 38.2969 45.0155C38.2969 43.366 39.5835 42.2773 40.9525 42.2773C42.3216 42.2773 42.2391 42.4588 42.701 42.9206V42.3763ZM42.701 45.0155C42.701 44.1907 42.0577 43.5639 41.233 43.5639C40.4082 43.5639 39.7649 44.2072 39.7649 45.0155C39.7649 45.8237 40.4082 46.467 41.233 46.467C42.0577 46.467 42.701 45.8237 42.701 45.0155Z" fill="white"/>
<path d="M45.0742 41.5514V40.2812H46.5423V41.5514H45.0742ZM45.1732 47.6544V42.3761H46.5423V47.6544H45.1732Z" fill="white"/>
<path d="M52.7614 44.5654V47.6664H51.3923V44.8458C51.3923 44.12 51.0294 43.5757 50.2872 43.5757C49.5449 43.5757 49.0995 44.12 49.0995 44.8458V47.6664H47.7305V42.388H49.0995V42.9324C49.5614 42.487 50.0232 42.2891 50.6501 42.2891C51.8377 42.2891 52.7614 43.2953 52.7614 44.5654Z" fill="white"/>
<path d="M64.5552 40.4623H66.1057L63.7305 47.753H62.5428L60.9923 42.7385L59.4418 47.654H58.2542L55.8789 40.3633H57.3469L58.815 45.1963L60.3655 40.3633H61.5531L63.1036 45.1963L64.5717 40.4623H64.5552Z" fill="white"/>
<path d="M71.4162 45.5568H67.3914C67.5729 46.2826 68.0347 46.6454 68.7605 46.6454C69.4863 46.6454 69.6842 46.464 69.9481 46.0021H71.3172C70.9543 46.9094 70.0306 47.7341 68.7605 47.7341C67.4904 47.7341 66.0059 46.6454 66.0059 44.996C66.0059 43.3465 67.3749 42.2578 68.7605 42.2578C70.1461 42.2578 71.7791 43.7094 71.4162 45.5403V45.5568ZM67.3914 44.4681H70.1461C70.0471 43.8248 69.6017 43.3795 68.777 43.3795C67.9522 43.3795 67.5894 43.8248 67.4079 44.4681H67.3914Z" fill="white"/>
<path d="M77.4709 45.5568H73.4461C73.6276 46.2826 74.0894 46.6454 74.8152 46.6454C75.541 46.6454 75.7389 46.464 76.0028 46.0021H77.3719C77.009 46.9094 76.0853 47.7341 74.8152 47.7341C73.5451 47.7341 72.0605 46.6454 72.0605 44.996C72.0605 43.3465 73.4296 42.2578 74.8152 42.2578C76.2007 42.2578 77.8337 43.7094 77.4709 45.5403V45.5568ZM73.3471 44.4681H76.0028C75.9038 43.8248 75.4585 43.3795 74.6337 43.3795C73.809 43.3795 73.5286 43.8248 73.3471 44.4681Z" fill="white"/>
<path d="M83.4079 47.6518H81.7584L79.746 45.3756V47.6518H78.377V40.1797H79.746V44.5508L81.6759 42.357H83.2264L80.9337 44.9137L83.4079 47.6518Z" fill="white"/>
<path d="M83.227 29.625H31.0703V35.8271H83.2105V29.625H83.227Z" fill="url(#paint0_linear_3021_3928)"/>
<path d="M119.039 1.06631L90.2266 22.3867L90.6877 23.0099L119.501 1.68951L119.039 1.06631Z" fill="white"/>
<path d="M120.49 1.50512L119.793 1.84375L126.205 15.0496L126.903 14.711L120.49 1.50512Z" fill="white"/>
<path d="M119.059 1.40002L108.098 19.7148L108.763 20.113L119.724 1.79815L119.059 1.40002Z" fill="white"/>
<path d="M121.167 1.31384L120.883 2.03516L163.778 18.932L164.062 18.2107L121.167 1.31384Z" fill="white"/>
<path d="M160.077 38.8147L159.334 38.6498L163.326 19.9281L155.178 25.6519L154.732 25.025L164.497 18.1797L160.077 38.8147Z" fill="white"/>
<path d="M91.2768 23.0622C91.2768 23.9695 90.551 24.6127 89.7263 24.6127C88.9015 24.6127 88.1758 23.887 88.1758 23.0622C88.1758 22.2375 88.9015 21.5117 89.7263 21.5117C90.551 21.5117 91.2768 22.2375 91.2768 23.0622Z" fill="white"/>
<path d="M161.263 38.8264C161.263 39.7337 160.537 40.377 159.713 40.377C158.888 40.377 158.162 39.6512 158.162 38.8264C158.162 38.0017 158.888 37.2759 159.713 37.2759C160.636 37.1935 161.263 37.9192 161.263 38.8264Z" fill="white"/>
<path d="M165.47 18.7732C165.47 19.6804 164.744 20.3237 163.92 20.3237C163.095 20.3237 162.369 19.5979 162.369 18.7732C162.369 17.9484 163.095 17.2227 163.92 17.2227C164.744 17.2227 165.47 17.9484 165.47 18.7732Z" fill="white"/>
<path d="M121.56 1.55052C121.56 2.45773 120.834 3.10103 120.01 3.10103C119.185 3.10103 118.459 2.37526 118.459 1.55052C118.459 0.725773 119.185 0 120.01 0C120.834 0 121.56 0.725773 121.56 1.55052Z" fill="white"/>
</g>
</g>
<defs>
<linearGradient id="paint0_linear_3021_3928" x1="83.227" y1="32.7095" x2="31.0703" y2="32.7095" gradientUnits="userSpaceOnUse">
<stop stop-opacity="0"/>
<stop offset="1" stop-color="white"/>
</linearGradient>
<clipPath id="clip0_3021_3928">
<rect width="164.948" height="48" fill="white" transform="translate(0.521484)"/>
</clipPath>
</defs>
</svg>
