<svg width="89" height="51" viewBox="0 0 89 51" fill="none" xmlns="http://www.w3.org/2000/svg">
<path d="M75.947 15.0897C75.8906 14.8094 75.7507 14.529 75.5545 14.3328C71.7412 10.744 64.2554 3.51065 62.9099 2.19288L62.2094 1.49203C60.3868 0.202313 58.5923 0.0621665 56.8542 1.71634L44.1815 14.501C44.1251 14.4449 44.0969 14.3889 44.0415 14.3328C40.2564 10.744 32.7425 3.51065 31.4251 2.19288C31.257 2.02468 30.7518 1.49203 30.7518 1.49203C28.9292 0.202313 27.1348 0.0621665 25.3967 1.71634L1.00518 26.3605C0.444599 26.8931 0.444599 27.7903 1.00518 28.351L1.03335 28.3791C3.50011 30.7342 9.55668 36.5097 10.3689 37.2667C10.8741 37.7433 11.6873 37.7433 12.1915 37.2387L32.7425 16.4356C33.5557 15.5944 34.4806 14.8935 35.49 14.3328C36.1905 13.9403 37.369 13.744 37.985 13.9122C38.5183 14.0524 41.0696 15.4822 42.387 16.3514L32.4899 26.3605C31.9293 26.8931 31.9293 27.7903 32.4899 28.351L32.5181 28.3791L36.5859 32.259C38.9578 34.5194 41.3635 36.8093 41.8546 37.2667C42.3589 37.7433 43.172 37.7433 43.6772 37.2387L64.2273 16.4356C65.0405 15.5944 65.9663 14.8935 66.9748 14.3328C67.6762 13.9122 68.8537 13.744 69.4707 13.9122C69.7524 13.9863 70.6294 14.4447 71.5853 14.9846C72.436 15.4656 73.3487 16.0112 73.9563 16.4075C74.099 16.5026 74.2596 16.5708 74.4277 16.602C74.5572 16.6261 74.6915 16.6282 74.8258 16.6038H74.853C75.5826 16.4915 76.0587 15.8187 75.947 15.0897Z" fill="#120833"/>
<path d="M79.9462 49.0423L80.1518 49.014L80.2279 48.9955C80.2683 48.9835 80.3068 48.9689 80.3434 48.9517C80.3697 48.9394 80.395 48.9256 80.4204 48.9106C80.4523 48.8912 80.4842 48.8696 80.5162 48.8458C80.6007 48.7898 80.657 48.7057 80.7124 48.5934L80.7425 48.4771C80.7575 48.4149 80.7687 48.3555 80.7687 48.2851C80.7687 48.0327 80.6288 47.8084 80.4326 47.6964C80.0683 47.472 79.6757 47.3038 79.2551 47.1916C79.0992 47.1398 78.9546 47.0879 78.8072 47.0294C78.7151 46.9932 78.6222 46.9543 78.5255 46.9113C78.302 46.7991 78.0776 46.659 77.8813 46.4908C77.6851 46.3226 77.517 46.1263 77.4043 45.874C77.2644 45.5936 77.208 45.3133 77.2362 45.0048C77.2362 44.9433 77.239 44.8808 77.2437 44.8178C77.2522 44.7086 77.2672 44.5979 77.2907 44.4893C77.3226 44.3465 77.3686 44.2073 77.4325 44.0797C77.5442 43.7993 77.7405 43.575 77.9649 43.3787C78.2175 43.1824 78.4982 43.0142 78.8062 42.9301C79.1706 42.818 79.5349 42.7619 79.9274 42.7619C80.056 42.7619 80.1866 42.7671 80.318 42.7775C80.6194 42.8013 80.9256 42.8522 81.2176 42.9301C81.5256 43.0142 81.8345 43.1263 82.1143 43.2945L81.6383 44.6123L81.5397 44.565L81.412 44.5086C81.2608 44.4441 81.1049 44.388 80.9368 44.3319C80.6288 44.2479 80.3481 44.1918 80.0401 44.2198C79.7311 44.1918 79.4513 44.2479 79.1706 44.388C79.0025 44.5002 78.8907 44.6965 78.918 44.8927C78.918 45.0048 78.9461 45.145 79.0025 45.2291C79.087 45.3412 79.1706 45.4254 79.2832 45.4815C79.4232 45.5655 79.5349 45.6216 79.6757 45.6777C79.8157 45.7337 79.9837 45.7898 80.18 45.874L80.4936 45.9976C80.6138 46.0458 80.7302 46.0941 80.8429 46.1423C80.9622 46.193 81.0777 46.2437 81.1894 46.2945C81.2289 46.3121 81.2683 46.331 81.3068 46.3513L81.38 46.3902C81.4533 46.431 81.5256 46.4761 81.5951 46.5247C81.7012 46.5994 81.8007 46.6823 81.8899 46.7711C81.9791 46.8473 82.0561 46.9349 82.1218 47.0315C82.2017 47.1482 82.2646 47.2778 82.3106 47.4159C82.3951 47.6964 82.4514 48.0047 82.4514 48.3132C82.4787 48.93 82.227 49.5187 81.7218 49.9112C81.581 50.0273 81.4176 50.1237 81.2326 50.202C81.0514 50.2786 80.8495 50.3378 80.626 50.381C80.3058 50.4429 79.9424 50.4719 79.5349 50.4719C79.2269 50.4719 78.9461 50.4439 78.6381 50.4159C78.4137 50.3879 78.1611 50.3318 77.9367 50.2757L77.8325 50.2419L77.6729 50.1922C77.5808 50.164 77.4888 50.1358 77.4043 50.1075C77.348 50.0794 77.285 50.0514 77.2221 50.0234C77.1592 49.9954 77.0963 49.9673 77.04 49.9393L77.517 48.6215C77.7686 48.7618 78.0494 48.8739 78.3292 48.93C78.7499 49.0421 79.1706 49.0982 79.5631 49.0701C79.6908 49.0701 79.8185 49.0583 79.9462 49.0423Z" fill="#120833"/>
<path d="M55.9284 49.4907C56.5453 50.1636 57.4702 50.5 58.6759 50.5C59.1811 50.5 59.6572 50.444 60.1342 50.3879C60.4703 50.3037 60.8065 50.1636 61.1154 49.9954L60.6666 48.6496L60.3586 48.7898C60.2459 48.8459 60.106 48.9019 59.9661 48.93C59.8806 48.964 59.7849 48.9877 59.6787 49.0074L59.5651 49.0266L59.4609 49.0422C59.2647 49.0701 59.0402 49.0701 58.8167 49.0701C58.4796 49.0701 58.1435 49.0141 57.8355 48.8739C57.5829 48.7618 57.3585 48.5936 57.1904 48.3693C57.0223 48.145 56.8815 47.8926 56.8261 47.6123C56.7716 47.4131 56.7406 47.2022 56.7256 46.9947C56.7171 46.8809 56.7134 46.7683 56.7134 46.659C56.7134 46.599 56.7153 46.5382 56.7181 46.4771C56.7228 46.3801 56.7322 46.2822 56.7444 46.1849C56.7716 45.9706 56.8176 45.7588 56.8815 45.5656C56.966 45.2852 57.1341 45.0329 57.3303 44.8366C57.4984 44.6404 57.7228 44.5002 57.9754 44.4161C58.228 44.332 58.4796 44.2759 58.7322 44.2759C58.9069 44.2759 59.075 44.2888 59.2402 44.3116C59.3482 44.3264 59.4543 44.3453 59.5595 44.3676C59.6299 44.3824 59.6994 44.3986 59.7698 44.4161C59.9097 44.4582 60.0431 44.5002 60.1736 44.5493C60.3032 44.5983 60.429 44.6545 60.5548 44.7245L61.0309 43.3787C60.9755 43.3506 60.891 43.2947 60.7511 43.2386L60.7145 43.2179C60.6844 43.2011 60.6525 43.1855 60.6206 43.1707L60.5614 43.1451L60.491 43.1175C60.4206 43.0909 60.3473 43.0666 60.2741 43.0423C60.1088 42.9802 59.9436 42.9334 59.7783 42.9019C59.7191 42.8908 59.66 42.8815 59.6018 42.8741C59.321 42.8461 59.0402 42.818 58.7604 42.818C58.228 42.818 57.7228 42.9022 57.2458 43.0704C57.0148 43.1571 56.7913 43.2661 56.5829 43.3975C56.3866 43.521 56.2035 43.6643 56.0411 43.8273C55.8861 43.9818 55.7434 44.1541 55.6176 44.3387L55.5462 44.4478C55.4974 44.526 55.4523 44.6063 55.41 44.6881C55.3518 44.8005 55.3002 44.9157 55.2561 45.0329C55.0598 45.5376 54.9753 46.0983 54.9753 46.659C54.9753 47.2216 55.0485 47.7293 55.1894 48.1792C55.3499 48.6933 55.5997 49.1319 55.9284 49.4907Z" fill="#120833"/>
<path fill-rule="evenodd" clip-rule="evenodd" d="M20.1252 42.874C21.2473 42.874 22.0877 43.0702 22.6764 43.4627C23.2652 43.8552 23.5741 44.472 23.5741 45.3132C23.6023 45.7618 23.4614 46.2104 23.2098 46.5748C22.929 46.9112 22.5928 47.1916 22.1722 47.3318C22.3121 47.5 22.4802 47.7243 22.6483 47.9766L22.7572 48.1367C22.8886 48.3283 23.0154 48.5138 23.1253 48.7336C23.1562 48.7965 23.1891 48.858 23.2229 48.9187C23.298 49.0525 23.3788 49.1826 23.4605 49.3157L23.4689 49.3294L23.6023 49.5467C23.7704 49.8271 23.8821 50.1075 24.022 50.3878H22.1722C22.0323 50.1354 21.8914 49.9112 21.7515 49.6589C21.6116 49.4065 21.4707 49.1542 21.3308 48.9298C21.1909 48.7055 21.051 48.4814 20.882 48.2571L20.7552 48.0804C20.6576 47.9451 20.5599 47.8138 20.4613 47.6962H19.6491V50.3878H17.9946V43.0983C18.3467 43.0169 18.7251 42.9881 19.0791 42.961L19.1157 42.9581C19.4528 42.902 19.8172 42.874 20.1252 42.874ZM20.2097 44.3039H19.8726L19.5927 44.3319V46.3225H20.0688C20.2303 46.3326 20.3956 46.3282 20.5608 46.3106C20.6519 46.3009 20.743 46.287 20.8332 46.2693C20.8914 46.2579 20.9496 46.245 21.0069 46.2306C21.1468 46.1952 21.2839 46.1508 21.4153 46.0982C21.6952 45.93 21.8632 45.6216 21.8078 45.2851C21.836 44.9768 21.667 44.6683 21.3872 44.5282C21.2707 44.4699 21.144 44.4217 21.0106 44.3847C20.7599 44.3151 20.4848 44.2855 20.2097 44.3039Z" fill="#120833"/>
<path d="M2.93202 43.4131C2.84657 43.241 2.76675 43.086 2.68694 42.9581H1.11692L1.09345 43.1555L1.04556 43.5401L0.985464 44.0146C0.961989 44.2057 0.939453 44.4042 0.920673 44.6123L0.841797 45.4829C0.811749 45.818 0.781701 46.1605 0.752592 46.5188C0.696252 47.1916 0.668081 47.8645 0.611741 48.5094C0.583571 48.8359 0.562913 49.1553 0.545072 49.4675L0.529109 49.7592L0.508451 50.189L0.505634 50.2577L0.5 50.3598H2.15452C2.18175 49.6308 2.20992 48.8458 2.23809 48.0047C2.29443 47.1636 2.35077 46.3226 2.40617 45.4534C2.51886 45.7337 2.65877 46.0702 2.82685 46.4347C2.99493 46.7991 3.13578 47.1636 3.30386 47.5282C3.47194 47.8926 3.61185 48.229 3.7527 48.5655L4.11704 49.4065H5.26638L5.63071 48.5655C5.77062 48.229 5.9387 47.8926 6.07955 47.5282L6.55563 46.4347C6.69648 46.0702 6.83639 45.7618 6.9763 45.4534C7.06081 46.2945 7.11621 47.1636 7.14438 48.0047C7.17255 48.8739 7.20072 49.6308 7.22889 50.3598H8.85524L8.84679 50.1915C8.82144 49.6764 8.79327 49.1157 8.74256 48.5094C8.68622 47.8365 8.65899 47.1916 8.60265 46.5188L8.58293 46.2847L8.50124 45.3522L8.43457 44.6123L8.39138 44.1446L8.33973 43.6738C8.30968 43.419 8.27682 43.1795 8.23832 42.9581H6.72371C6.63544 43.1006 6.54718 43.2769 6.45046 43.4731L6.43637 43.4998L6.42792 43.5178L6.4129 43.549L6.40163 43.5717L6.2758 43.8273C6.10772 44.1637 5.91147 44.5562 5.74245 44.9487L5.59315 45.3022L5.4307 45.6857C5.36028 45.8502 5.28703 46.0162 5.21004 46.1823C5.10862 46.4009 5.0213 46.6118 4.93773 46.8152L4.92364 46.8481L4.9011 46.9038L4.80814 47.1264L4.70579 47.36L4.20061 46.1823L4.02502 45.7475C3.91327 45.4744 3.79684 45.2055 3.66819 44.9487C3.54612 44.7039 3.43438 44.459 3.3264 44.2278C3.26161 44.0884 3.19869 43.9538 3.13578 43.8273L2.93202 43.4131Z" fill="#120833"/>
<path fill-rule="evenodd" clip-rule="evenodd" d="M15.0921 49.966L15.1597 50.1744L15.2189 50.3598H16.957C16.8152 49.9468 16.68 49.5553 16.5476 49.182L16.4086 48.7903C16.3297 48.5692 16.2508 48.3544 16.172 48.145C15.9203 47.472 15.6677 46.8272 15.4433 46.2384C15.2743 45.7743 15.0902 45.342 14.9137 44.9296L14.7428 44.5282C14.5184 43.9955 14.2939 43.4629 14.0414 42.9581H12.4713C12.3624 43.1765 12.2535 43.3948 12.1464 43.6177C12.0065 43.9101 11.8704 44.2101 11.7427 44.5282C11.5183 45.089 11.2657 45.6497 11.0412 46.2384L10.7858 46.903C10.6328 47.3009 10.4731 47.7172 10.3126 48.145C10.1708 48.522 10.0299 48.9255 9.88439 49.3456L9.84495 49.4565C9.7426 49.7511 9.63743 50.0534 9.52757 50.3598H11.2657C11.3502 50.1075 11.4337 49.8551 11.5183 49.5748C11.6018 49.2944 11.7145 49.0421 11.7981 48.7618H14.6864L14.7372 48.9246L14.7832 49.056L14.8573 49.2644C14.8958 49.3711 14.9334 49.4752 14.9663 49.5748C15.0085 49.7005 15.0508 49.8333 15.0921 49.966ZM13.0601 45.089C13.1446 44.8927 13.2 44.7525 13.2282 44.6404C13.2338 44.664 13.2423 44.6887 13.2526 44.715L13.2939 44.813L13.3024 44.832L13.3136 44.8615C13.3418 44.9283 13.3728 45.0033 13.3963 45.089L13.6207 45.7337C13.7043 45.9209 13.7719 46.1081 13.8479 46.3181L13.8536 46.3363L13.9296 46.5468L14.2658 47.472H12.1633C12.2751 47.1356 12.3878 46.8552 12.4995 46.5468C12.6113 46.2384 12.7239 45.9861 12.8075 45.7337L13.0601 45.089Z" fill="#120833"/>
<path d="M29.0269 49.7906C29.1687 49.9878 29.302 50.1738 29.4053 50.3598H31.396C30.919 49.5748 30.3866 48.8178 29.826 48.1169C29.3217 47.472 28.733 46.8833 28.1161 46.3506L28.2992 46.1733C28.4644 46.0112 28.6278 45.8452 28.7874 45.6784C28.9734 45.4846 29.1565 45.2897 29.3358 45.0981L29.7142 44.6965C30.2091 44.1739 30.704 43.5975 31.1997 43.02L31.2279 42.9862H29.2654C28.9565 43.3175 28.6475 43.6663 28.3104 44.0462L28.0316 44.36C27.8888 44.5213 27.7433 44.6827 27.5968 44.8431L27.363 45.0968L26.854 45.6423L26.7423 45.7618V42.9862H25.0878V50.3598H26.7423V47.2477C26.994 47.444 27.2465 47.6683 27.4991 47.9207C27.7508 48.173 28.0034 48.4533 28.2278 48.7337L28.5076 49.0855C28.5827 49.1817 28.656 49.2779 28.7274 49.3741L28.8006 49.4731L28.8729 49.5748L29.0269 49.7906Z" fill="#120833"/>
<path d="M32.35 50.3598V42.9862H37.3408V44.388H34.0045V45.8459H36.9483V47.2197H34.0045V48.9861H37.5652V50.3879L32.35 50.3598Z" fill="#120833"/>
<path d="M44.265 44.388V42.9581H38.1812V44.388H40.3963V50.3598H42.0499V44.388H44.265Z" fill="#120833"/>
<path fill-rule="evenodd" clip-rule="evenodd" d="M52.8438 50.3598C52.7602 50.1075 52.6757 49.8271 52.5912 49.5748L52.3113 48.7618H49.423L49.3957 48.851L49.3685 48.9317L49.3159 49.0783C49.2568 49.2418 49.1948 49.4031 49.1431 49.5748C49.0586 49.8551 48.9751 50.1075 48.8906 50.3598H47.1525C47.2623 50.0534 47.3675 49.7511 47.4698 49.4565C47.6304 48.9965 47.7835 48.5551 47.9375 48.145L48.1957 47.4627L48.6661 46.2384C48.9187 45.6497 49.1431 45.089 49.3676 44.5282C49.4718 44.2681 49.5817 44.02 49.6953 43.7785L49.807 43.5438L49.9103 43.3319L50.0962 42.9581H51.6662L51.7705 43.1721L51.9066 43.4611L52.1019 43.8902C52.1977 44.1016 52.2944 44.3149 52.3949 44.5282C52.6475 45.0609 52.8719 45.6216 53.0963 46.2384C53.3208 46.8552 53.5724 47.472 53.825 48.145C54.0776 48.8178 54.3302 49.5468 54.61 50.3598H52.8438ZM50.8531 44.6404C50.8249 44.7525 50.7695 44.8927 50.685 45.089L50.4324 45.7337L50.3789 45.8853L50.3507 45.9613C50.2812 46.1418 50.2023 46.3306 50.1244 46.5468L49.9836 46.9245C49.9188 47.099 49.853 47.276 49.7882 47.472H51.8907L51.5545 46.5468L51.4784 46.3363C51.4005 46.1189 51.332 45.9263 51.2456 45.7337L51.1967 45.6188L51.1404 45.4734L51.0944 45.3514C51.0615 45.2608 51.0305 45.1749 50.9939 45.089C50.9733 45.0423 50.9582 44.9988 50.946 44.9581L50.9291 44.8979L50.9122 44.8299L50.9094 44.8198C50.8934 44.7519 50.8794 44.6931 50.8531 44.6404Z" fill="#120833"/>
<path fill-rule="evenodd" clip-rule="evenodd" d="M65.8574 43.0182C66.2875 43.1164 66.649 43.2645 66.9466 43.4627C67.5354 43.8552 67.8161 44.472 67.8161 45.3132C67.8434 45.7618 67.7035 46.2104 67.4509 46.5748C67.1992 46.9112 66.8349 47.1916 66.4142 47.3318C66.5541 47.5 66.7222 47.7243 66.8903 47.9766C67.0584 48.229 67.2274 48.4533 67.3673 48.7336L67.3927 48.784L67.4518 48.893C67.5288 49.0342 67.6133 49.1708 67.6997 49.3106L67.7053 49.3208L67.8434 49.5467C67.8894 49.622 67.9307 49.6974 67.9692 49.7727L68.0556 49.9474L68.1317 50.1101C68.1748 50.2027 68.218 50.2953 68.2641 50.3878H66.386C66.2461 50.1354 66.1053 49.9112 65.9654 49.6589C65.8255 49.4065 65.6846 49.1542 65.5447 48.9298L65.3747 48.6606C65.2884 48.5261 65.1973 48.3916 65.0959 48.2571L64.8264 47.8894C64.7766 47.823 64.7278 47.7596 64.6752 47.6962H63.8629V50.3878H62.2084V43.0983C62.4 43.054 62.599 43.0253 62.7981 43.0039C62.9775 42.9847 63.1568 42.9714 63.3296 42.9581C63.7221 42.902 64.0864 42.874 64.3954 42.874C64.6245 42.874 64.8414 42.8822 65.047 42.8985C65.3409 42.9219 65.6104 42.9618 65.8574 43.0182ZM64.4789 44.3039H64.1428L63.8629 44.3319V46.3225H64.339C64.7879 46.3505 65.2649 46.2664 65.6846 46.0982C65.9654 45.93 66.1053 45.6216 66.0771 45.2851C66.0865 45.1829 66.0743 45.0806 66.0452 44.9845C65.9851 44.7907 65.8536 44.6218 65.6846 44.5282C65.4837 44.4352 65.2649 44.3679 65.0376 44.3311C64.8545 44.3013 64.6667 44.2913 64.4789 44.3039Z" fill="#120833"/>
<path fill-rule="evenodd" clip-rule="evenodd" d="M75.8906 48.3132C76.0869 47.7805 76.1714 47.2197 76.1714 46.659C76.1714 46.0983 76.0869 45.5095 75.8906 45.0048C75.7225 44.5563 75.4418 44.1358 75.1056 43.7993C74.7695 43.4909 74.377 43.2386 73.9281 43.0704C73.4793 42.9022 72.975 42.818 72.498 42.818C72.0219 42.818 71.5449 42.9022 71.0961 43.0704C70.6482 43.2105 70.2557 43.4629 69.9186 43.7993C69.6641 44.0344 69.451 44.3104 69.2876 44.6083C69.2453 44.6849 69.2068 44.7628 69.1721 44.8418L69.1458 44.9026L69.1054 45.0048C68.9749 45.2993 68.8913 45.6223 68.8444 45.9517C68.8115 46.1869 68.7974 46.4254 68.7974 46.659C68.7974 47.2197 68.8819 47.7805 69.0782 48.3132C69.2462 48.7618 69.5261 49.1823 69.8632 49.5187C70.0284 49.6702 70.2068 49.8083 70.3993 49.9294C70.5054 49.9961 70.6153 50.0576 70.7289 50.1133C70.8294 50.1626 70.9336 50.2076 71.0407 50.2477C71.4886 50.4159 71.9938 50.5 72.4698 50.5C72.975 50.5 73.4511 50.4159 73.9281 50.2477C74.377 50.1075 74.7695 49.8552 75.1056 49.5187C75.47 49.1823 75.7225 48.7618 75.8906 48.3132ZM70.5975 47.3617C70.5787 47.2739 70.5655 47.1847 70.5562 47.0946C70.5411 46.9509 70.5355 46.805 70.5355 46.659C70.5355 46.3226 70.5637 45.9862 70.6754 45.7058C70.7308 45.5229 70.8087 45.352 70.9036 45.193C70.9543 45.1082 71.0097 45.0268 71.0679 44.9488C71.2369 44.7245 71.4332 44.5563 71.6848 44.4441C71.9374 44.332 72.2464 44.2759 72.5262 44.2759C72.8351 44.2759 73.1149 44.332 73.3675 44.4441C73.6201 44.5563 73.8164 44.7245 73.9845 44.9208C74.1807 45.1451 74.2924 45.3973 74.377 45.6777C74.4887 45.9862 74.5169 46.3226 74.5169 46.659C74.5169 46.9955 74.4605 47.3319 74.377 47.6402C74.2924 47.9207 74.1525 48.173 73.9845 48.3973C73.8164 48.5936 73.6201 48.7618 73.3675 48.8739L73.2605 48.9137L73.1591 48.9468C73.1131 48.9608 73.067 48.9733 73.021 48.9842C72.9525 49.0003 72.8839 49.0129 72.8154 49.0223L72.745 49.0309L72.6811 49.0364L72.6107 49.0405L72.5262 49.0422C72.3788 49.0422 72.2229 49.0266 72.0717 48.9953C71.9355 48.9674 71.8041 48.9269 71.6848 48.8739C71.4332 48.7618 71.2369 48.5936 71.0679 48.3973C70.8717 48.173 70.7599 47.9207 70.6754 47.6402C70.6425 47.5496 70.6172 47.4566 70.5975 47.3617Z" fill="#120833"/>
<path d="M86.3474 49.014L86.1417 49.0421C86.0619 49.0522 85.9821 49.0606 85.9023 49.0655C85.8544 49.0685 85.8065 49.0701 85.7586 49.0701C85.0581 49.0982 84.3567 48.958 83.7407 48.5934L83.2637 49.9112C83.3698 49.9748 83.4796 50.0305 83.5923 50.0797C83.7773 50.1603 83.9689 50.2234 84.1604 50.2757C84.3848 50.3318 84.6374 50.3879 84.8619 50.4159L85.1595 50.4443L85.3454 50.4587C85.4703 50.4668 85.598 50.4719 85.7304 50.4719C86.7126 50.4719 87.4413 50.2757 87.9174 49.9112C88.3944 49.5187 88.6751 48.93 88.647 48.3132C88.647 48.1683 88.6404 48.0236 88.6226 47.8817C88.6019 47.7214 88.5662 47.5647 88.5061 47.4159C88.4226 47.1636 88.2826 46.9673 88.0864 46.7711C87.8901 46.5748 87.6376 46.4066 87.385 46.2945C87.3117 46.2582 87.2357 46.2218 87.1558 46.1854L86.9878 46.1117L86.7784 46.0254C86.6507 45.9749 86.5164 45.9245 86.3755 45.874L86.2797 45.8342L86.1164 45.7707L86.029 45.7378L85.8713 45.6777C85.7032 45.6216 85.5905 45.5655 85.4506 45.4815C85.3379 45.4254 85.2544 45.3412 85.1699 45.2291C85.1445 45.1909 85.1248 45.1411 85.1107 45.0876C85.0947 45.0234 85.0863 44.9539 85.0863 44.8927C85.0581 44.6965 85.1699 44.5002 85.3379 44.388C85.6187 44.2479 85.8995 44.1918 86.2075 44.2198C86.5164 44.1918 86.8244 44.2479 87.1324 44.3319C87.385 44.4161 87.6094 44.5002 87.8338 44.6123L88.3099 43.2945C88.0301 43.1263 87.7211 43.0142 87.4131 42.9301C86.9925 42.818 86.5718 42.7619 86.1229 42.7619C85.9164 42.7619 85.7173 42.7775 85.522 42.8086C85.3473 42.8365 85.1745 42.877 85.0018 42.9301C84.8581 42.9693 84.721 43.0268 84.5895 43.0968C84.4384 43.177 84.2956 43.2739 84.1604 43.3787C83.9369 43.575 83.7407 43.7993 83.628 44.0797C83.5416 44.252 83.4872 44.4455 83.458 44.6408C83.4468 44.7202 83.4393 44.7998 83.4346 44.8784L83.4318 45.0048C83.4036 45.3133 83.4599 45.5936 83.5998 45.874C83.6374 45.9576 83.6806 46.035 83.7294 46.1073C83.8271 46.2533 83.9454 46.3783 84.0769 46.4908C84.213 46.6072 84.3614 46.7102 84.5144 46.7996C84.583 46.8395 84.6525 46.8767 84.7219 46.9113L84.8562 46.9697L85.0431 47.0456L85.1501 47.0862L85.2853 47.1349L85.4506 47.1916C85.8713 47.3038 86.2638 47.472 86.6281 47.6964C86.7042 47.7397 86.7718 47.7998 86.8262 47.8717C86.8685 47.928 86.9023 47.9917 86.9267 48.0602C86.9511 48.1308 86.9643 48.2066 86.9643 48.2851C86.9643 48.3972 86.9361 48.4814 86.9089 48.5934C86.8525 48.7057 86.7962 48.7898 86.7126 48.8458C86.6 48.93 86.4882 48.9861 86.3474 49.014Z" fill="#120833"/>
<path d="M76.7038 18.2299L68.9655 25.968C68.0687 26.865 68.0687 28.323 68.9383 29.2202L76.6756 36.9583C77.6015 37.8555 79.0588 37.8555 79.9565 36.9583L87.6939 29.2482C88.5916 28.323 88.5916 26.865 87.6939 25.968L79.9847 18.2299C79.0588 17.3326 77.6015 17.3326 76.7038 18.2299Z" fill="#120833"/>
</svg>
