<svg width="50" height="16" viewBox="0 0 50 16" fill="none" xmlns="http://www.w3.org/2000/svg">
<path d="M47.6197 0.286501H49.9999V11.3058H47.6197V9.71901C46.7235 10.9679 45.4379 11.5923 43.763 11.5923C42.2497 11.5923 40.9567 11.034 39.8842 9.91736C38.8117 8.78604 38.2754 7.41231 38.2754 5.79614C38.2754 4.16529 38.8117 2.79155 39.8842 1.67493C40.9567 0.55831 42.2497 0 43.763 0C45.4379 0 46.7235 0.617079 47.6197 1.85124V0.286501ZM41.6473 8.33058C42.3084 8.99174 43.1386 9.32232 44.1376 9.32232C45.1367 9.32232 45.9668 8.99174 46.628 8.33058C47.2892 7.65473 47.6197 6.80992 47.6197 5.79614C47.6197 4.78237 47.2892 3.9449 46.628 3.28375C45.9668 2.6079 45.1367 2.26997 44.1376 2.26997C43.1386 2.26997 42.3084 2.6079 41.6473 3.28375C40.9861 3.9449 40.6556 4.78237 40.6556 5.79614C40.6556 6.80992 40.9861 7.65473 41.6473 8.33058Z" fill="white" fill-opacity="0.6"/>
<path d="M34.8543 0.286501H37.1903V10.7989C37.1903 12.4738 36.6394 13.7594 35.5374 14.6556C34.4355 15.5519 33.0985 16 31.5264 16C28.9846 16 27.2436 15.1111 26.3033 13.3333L28.3529 12.1433C28.9259 13.2746 29.9984 13.8402 31.5705 13.8402C32.599 13.8402 33.3997 13.5684 33.9727 13.0248C34.5604 12.4959 34.8543 11.7539 34.8543 10.7989V9.45455C33.958 10.7328 32.6798 11.3719 31.0195 11.3719C29.4621 11.3719 28.1472 10.8209 27.0746 9.71901C26.0021 8.60239 25.4658 7.25803 25.4658 5.68595C25.4658 4.11387 26.0021 2.77686 27.0746 1.67493C28.1472 0.55831 29.4621 0 31.0195 0C32.6798 0 33.958 0.639118 34.8543 1.91735V0.286501ZM28.8377 8.15427C29.5136 8.81543 30.351 9.146 31.3501 9.146C32.3492 9.146 33.1793 8.81543 33.8405 8.15427C34.5163 7.49311 34.8543 6.67034 34.8543 5.68595C34.8543 4.70156 34.5163 3.87879 33.8405 3.21763C33.1793 2.55647 32.3492 2.22589 31.3501 2.22589C30.351 2.22589 29.5136 2.55647 28.8377 3.21763C28.1766 3.87879 27.846 4.70156 27.846 5.68595C27.846 6.67034 28.1766 7.49311 28.8377 8.15427Z" fill="white" fill-opacity="0.6"/>
<path d="M18.6731 3.32782C18.6731 3.69513 18.8715 3.98898 19.2682 4.20937C19.6795 4.41506 20.1717 4.59871 20.7447 4.76033C21.3324 4.90726 21.9201 5.08356 22.5078 5.28926C23.0955 5.49495 23.5877 5.84757 23.9844 6.34711C24.3958 6.83196 24.6015 7.44904 24.6015 8.19835C24.6015 9.2562 24.1901 10.0863 23.3673 10.6887C22.5593 11.2911 21.5381 11.5923 20.304 11.5923C19.2167 11.5923 18.2838 11.3646 17.5051 10.9091C16.7264 10.4536 16.1607 9.82186 15.8081 9.01377L17.8577 7.82369C18.2397 8.88154 19.0551 9.41047 20.304 9.41047C21.5528 9.41047 22.1773 8.99908 22.1773 8.17631C22.1773 7.82369 21.9716 7.53719 21.5602 7.31681C21.1635 7.09642 20.6713 6.91277 20.0836 6.76584C19.5106 6.60423 18.9302 6.42057 18.3425 6.21488C17.7548 6.00918 17.2553 5.67126 16.8439 5.2011C16.4472 4.71625 16.2489 4.10652 16.2489 3.3719C16.2489 2.35813 16.6309 1.5427 17.3949 0.92562C18.1736 0.30854 19.1359 0 20.2819 0C21.1929 0 22.0009 0.205693 22.7062 0.61708C23.4261 1.01377 23.9771 1.57208 24.3591 2.29201L22.3536 3.41598C21.9716 2.57851 21.281 2.15978 20.2819 2.15978C19.8265 2.15978 19.4445 2.26263 19.1359 2.46832C18.8274 2.65932 18.6731 2.94582 18.6731 3.32782Z" fill="white" fill-opacity="0.6"/>
<path d="M9.41975 11.5923C7.80358 11.5923 6.42985 11.034 5.29853 9.91736C4.16722 8.80074 3.60156 7.427 3.60156 5.79614C3.60156 4.16529 4.16722 2.79155 5.29853 1.67493C6.42985 0.55831 7.80358 0 9.41975 0C11.0506 0 12.4243 0.55831 13.541 1.67493C14.6723 2.79155 15.2379 4.16529 15.2379 5.79614C15.2379 7.427 14.6723 8.80074 13.541 9.91736C12.4243 11.034 11.0506 11.5923 9.41975 11.5923ZM6.97346 8.2865C7.63462 8.94766 8.45005 9.27824 9.41975 9.27824C10.3894 9.27824 11.2049 8.94766 11.866 8.2865C12.5272 7.62535 12.8578 6.79523 12.8578 5.79614C12.8578 4.79706 12.5272 3.96694 11.866 3.30579C11.2049 2.64463 10.3894 2.31405 9.41975 2.31405C8.45005 2.31405 7.63462 2.64463 6.97346 3.30579C6.31231 3.96694 5.98173 4.79706 5.98173 5.79614C5.98173 6.79523 6.31231 7.62535 6.97346 8.2865Z" fill="white" fill-opacity="0.6"/>
<ellipse cx="1.71573" cy="2.00968" rx="1.28165" ry="1.28165" fill="white" fill-opacity="0.6"/>
<ellipse cx="1.71573" cy="9.52238" rx="1.28165" ry="1.28165" fill="white" fill-opacity="0.6"/>
</svg>
