<svg xmlns="http://www.w3.org/2000/svg" viewBox="0 0 40 40" enable-background="new 0 0 40 40"><style type="text/css">.st0{fill:#FE3F21;}</style><path class="st0" d="M20 0c-11 0-20 9-20 20s9 20 20 20 20-9 20-20-9-20-20-20zm11.6 22.7l.1.9c0 4.5-5.2 8.1-11.7 8.1-6.5 0-11.7-3.6-11.7-8.1 0-.3 0-.6.1-.9-1-.5-1.7-1.5-1.7-2.7 0-1.6 1.3-2.9 2.9-2.9.8 0 1.5.3 2 .8 2-1.5 4.8-2.4 7.9-2.5l1.5-7c0-.1.1-.3.2-.3.2-.1.3-.1.5-.1l4.8 1c.3-.7 1-1.2 1.8-1.2 1.1 0 2.1.9 2.1 2.1 0 1.1-.9 2.1-2.1 2.1-1.1 0-2-.9-2.1-2l-4.3-.9-1.3 6.2c3 .1 5.8 1.1 7.8 2.5.5-.5 1.2-.8 2-.8 1.6 0 2.9 1.3 2.9 2.9 0 1.3-.7 2.3-1.7 2.8zM24.2 26.8c-.9.9-2.8 1.2-4.2 1.2-1.4 0-3.3-.3-4.2-1.2-.2-.2-.6-.2-.8 0-.2.2-.2.6 0 .8 1.4 1.4 4.1 1.5 4.9 1.5.8 0 3.5-.1 4.9-1.5.2-.2.2-.5 0-.8 0-.2-.4-.2-.6 0zM17.5 22.1c0-1.1-.9-2.1-2.1-2.1-1.1 0-2.1.9-2.1 2.1 0 1.1.9 2.1 2.1 2.1 1.2 0 2.1-1 2.1-2.1zM24.6 20c-1.1 0-2.1.9-2.1 2.1 0 1.1.9 2.1 2.1 2.1 1.1 0 2.1-.9 2.1-2.1 0-1.2-1-2.1-2.1-2.1z"/></svg>