<svg width="224" height="48" viewBox="0 0 224 48" fill="none" xmlns="http://www.w3.org/2000/svg">
<g clip-path="url(#clip0_3021_3929)">
<path d="M39.8423 34.7635C39.856 34.7366 39.8717 34.7099 39.8831 34.6817C39.8956 34.653 39.9063 34.6215 39.9157 34.5914C39.9252 34.5613 39.9344 34.5331 39.9421 34.5011C39.9483 34.4709 39.9528 34.4408 39.9578 34.4093C39.9621 34.3739 39.9671 34.341 39.9671 34.3056C39.9671 34.2922 39.9703 34.2808 39.9703 34.2655C39.9703 34.2486 39.9671 34.232 39.9658 34.2151C39.9646 34.18 39.9615 34.1449 39.9565 34.1101C39.952 34.078 39.9457 34.0463 39.9377 34.015C39.9303 33.9851 39.9215 33.9556 39.9113 33.9266C39.8994 33.8925 39.886 33.8591 39.8712 33.8263C39.8649 33.8129 39.8605 33.7981 39.8542 33.7828L31.1958 17.1261C31.1914 17.1182 31.1851 17.1113 31.1819 17.1026C31.1651 17.0738 31.1469 17.0458 31.1274 17.019C31.1087 16.9923 31.0903 16.9654 31.0696 16.9408C31.054 16.9226 31.034 16.9039 31.0171 16.8859C30.9901 16.8582 30.9613 16.8324 30.931 16.8089C30.9247 16.8041 30.9205 16.7988 30.9153 16.7941C30.9016 16.7841 30.8859 16.7793 30.8722 16.7695C30.8408 16.7492 30.81 16.7292 30.7766 16.7146C30.7507 16.7018 30.7241 16.6905 30.697 16.6809C30.6688 16.6709 30.6412 16.6595 30.6118 16.6529C30.5813 16.6452 30.5505 16.6391 30.5194 16.6347C30.4913 16.6315 30.4649 16.6268 30.4355 16.6247C30.4047 16.6228 30.3745 16.6247 30.3439 16.626C30.3143 16.6281 30.2861 16.6294 30.2565 16.6341C30.2271 16.6388 30.198 16.6455 30.1694 16.6542C30.1402 16.6604 30.1117 16.6693 30.084 16.6809C30.0543 16.6926 30.0252 16.7061 29.9969 16.7212C29.9799 16.7312 29.9598 16.7364 29.9423 16.7458C29.9329 16.7505 29.9286 16.7572 29.9191 16.7627C29.8928 16.7793 29.8696 16.7994 29.8445 16.8176C29.8187 16.8368 29.7938 16.8573 29.7698 16.8791C29.7509 16.8973 29.7352 16.9192 29.717 16.9374C29.6914 16.9655 29.6679 16.9957 29.6468 17.0277C29.6424 17.0345 29.6361 17.039 29.6331 17.0458L22.8994 27.5463L14.4148 13.6458L14.4116 13.6424C14.3842 13.6007 14.354 13.5611 14.3212 13.524C14.312 13.5127 14.3043 13.4992 14.295 13.4892C14.2811 13.4745 14.2622 13.461 14.2465 13.4476C14.2152 13.4196 14.1845 13.3895 14.1519 13.3639C14.1519 13.3639 14.1507 13.3626 14.1487 13.3607C14.133 13.3493 14.1173 13.3438 14.1006 13.3338C14.0647 13.3124 14.0289 13.2903 13.9913 13.2723C13.9662 13.2623 13.9398 13.2554 13.9147 13.2475C13.8833 13.2375 13.8507 13.2261 13.82 13.2193C13.7949 13.2147 13.7685 13.2127 13.7434 13.2093C13.709 13.206 13.6751 13.1992 13.6406 13.1992C13.6191 13.1997 13.5977 13.202 13.5766 13.206C13.539 13.2093 13.4999 13.2106 13.463 13.2193C13.4429 13.224 13.4222 13.2306 13.4023 13.2375C13.3649 13.2463 13.3284 13.2586 13.293 13.2742C13.2617 13.2885 13.2315 13.3053 13.2026 13.3245C13.1807 13.3378 13.1588 13.3459 13.1386 13.3613L13.1356 13.3647C13.1031 13.3891 13.0723 13.4159 13.0433 13.4449C13.0264 13.4597 13.0076 13.4731 12.9918 13.4898C12.9811 13.4998 12.9748 13.5146 12.9636 13.5246C12.9323 13.5615 12.8996 13.5996 12.8745 13.6418L12.8715 13.6452L0.621845 33.7252C0.609369 33.7432 0.603131 33.7667 0.592437 33.7868C0.573544 33.8216 0.554829 33.8551 0.540927 33.8939C0.530696 33.9251 0.521893 33.9568 0.514549 33.9889C0.50528 34.019 0.495834 34.0472 0.489596 34.0794C0.481932 34.1209 0.480149 34.1644 0.47712 34.2064C0.475694 34.2267 0.470703 34.2467 0.470703 34.2668V34.2734C0.470703 34.3236 0.476941 34.3705 0.484427 34.4207C0.487635 34.4355 0.487635 34.4508 0.488883 34.4676C0.501359 34.5292 0.51847 34.5914 0.54164 34.6484C0.552334 34.6764 0.568019 34.7018 0.582456 34.7287C0.596179 34.7588 0.610616 34.7902 0.627549 34.819C0.660165 34.8725 0.69902 34.9208 0.739836 34.9662C0.75053 34.9784 0.766214 34.9884 0.778691 34.9997C0.811307 35.0312 0.845885 35.0634 0.882957 35.0902L0.887235 35.0934C0.891691 35.0969 0.897929 35.0989 0.901137 35.1003C0.963162 35.1423 1.03036 35.1752 1.10058 35.1993C1.11947 35.2059 1.13819 35.2127 1.15833 35.2174C1.23298 35.2392 1.30994 35.2509 1.38736 35.2521H39.0511C39.1228 35.2521 39.191 35.2407 39.2582 35.2241C39.2771 35.2188 39.2953 35.2106 39.314 35.2059C39.3664 35.1896 39.4171 35.1677 39.4653 35.1404C39.4758 35.1336 39.4853 35.1317 39.4967 35.127C39.5072 35.1203 39.5154 35.1116 39.5249 35.1048C39.5543 35.0868 39.5826 35.0647 39.609 35.0412C39.6309 35.0225 39.6521 35.0045 39.673 34.9844C39.6949 34.9623 39.7149 34.9375 39.737 34.9142C39.7557 34.8907 39.7758 34.8672 39.7933 34.8419C39.8122 34.8184 39.8266 34.7923 39.8423 34.7635ZM58.875 35.3089C54.6478 35.2814 52.689 33.0809 52.2506 29.7531L54.0291 29.3408C54.4676 32.1191 55.9621 33.6312 58.9265 33.6312C61.6329 33.6312 62.7929 32.4759 62.7929 30.7433C62.7929 29.0109 61.7106 28.1307 58.5401 27.5253C54.3384 26.7282 52.9726 25.0499 52.9726 22.6575C52.9726 19.9623 54.8027 18.2017 58.4629 18.2017C62.1229 18.2017 63.6436 20.1268 64.2622 23.0972L62.4065 23.5095C61.8908 21.117 60.963 19.8792 58.3857 19.8792C55.9626 19.8792 54.8027 20.8969 54.8027 22.5469C54.8027 24.0598 55.627 25.0774 59.1585 25.8198C63.5144 26.7 64.6486 28.3226 64.6486 30.6055C64.6486 33.411 62.9736 35.3089 58.875 35.3089ZM68.1231 31.2656V23.8396H66.1638V22.217H68.1231V18.5316H69.8761V22.217H73.9483V23.8396H69.8761V31.1276C69.8761 32.7229 70.4689 33.5477 71.9126 33.5477C72.5825 33.5477 73.0982 33.4379 73.8197 33.2176L74.0776 34.8951C73.2784 35.1703 72.6082 35.3081 71.6031 35.3081C69.2059 35.3081 68.1231 33.6314 68.1231 31.2656ZM79.8413 33.7137C82.2898 33.7137 83.8879 32.2562 83.8879 30.3036V29.4234H79.97C78.2427 29.4234 77.2891 30.1656 77.2891 31.5963C77.2891 32.6961 77.9342 33.7137 79.8413 33.7137ZM83.9656 35.0062V31.9537H83.7592C83.1405 34.1267 81.517 35.2814 79.3518 35.2814C77.0061 35.2814 75.5631 34.2091 75.5631 31.761C75.5631 29.6428 76.9289 28.0201 79.7646 28.0201H83.8891V26.8373C83.8891 24.7191 83.1156 23.5371 80.9504 23.5371C79.1462 23.5371 78.1411 24.4997 77.7283 26.3701L76.0274 25.9027C76.5689 23.3999 78.2696 21.9425 80.9763 21.9425C84.224 21.9425 85.6413 23.6475 85.6413 26.8106V35.0062H83.9656ZM90.8536 17.3489V27.8274H92.1166L96.9365 22.2168H98.973V22.5197L93.5601 28.543L99.4881 34.7037V35.0062H97.426L92.1679 29.3408H90.8536V35.0062H89.1007V17.3489H90.8536ZM103.423 19.4944H101.232V17.5693H103.423V19.4944ZM103.191 35.0062H101.438V22.217H103.191V35.0062ZM108.672 27.6351V35.0062H106.894V22.217H108.647V25.5171H108.853C109.497 23.3168 111.147 21.9143 113.287 21.9143C116.096 21.9143 117.333 23.8394 117.333 26.6451V35.0062H115.555V27.0582C115.555 25.133 114.833 23.6482 112.668 23.6482C110.271 23.6482 108.672 25.2426 108.672 27.6351ZM124.916 23.8122C122.674 23.8122 121.694 24.912 121.694 26.6451C121.694 28.3783 122.622 29.4506 124.942 29.4506C127.262 29.4506 128.319 28.4606 128.319 26.6453C128.319 24.8296 127.133 23.8122 124.916 23.8122ZM125.174 38.0864C128.809 38.0864 129.633 37.3989 129.633 36.0787C129.633 35.1983 129.014 34.5108 127.571 34.5108H123.163C121.514 34.5108 120.818 35.4736 120.818 36.2983C120.818 37.5636 121.772 38.0864 125.174 38.0864ZM131.154 36.0238C131.154 38.472 129.685 39.5992 125.123 39.5992C120.56 39.5992 119.298 38.5269 119.298 36.8211C119.298 35.6932 120.251 34.8684 121.953 34.5108V34.401C121.18 34.1809 120.613 33.6863 120.613 32.7784C120.613 32.1458 121.102 31.623 121.747 31.2107L122.649 30.5506C120.948 29.9453 120.046 28.543 120.046 26.6724C120.046 23.7571 121.928 22.2168 125.124 22.2168H130.82V23.7845H129.351C128.707 23.7845 127.933 23.7296 126.825 23.6191L126.8 23.8394C128.501 24.1968 129.918 25.0223 129.918 27.0025C129.918 29.5053 128.217 30.9078 124.918 30.9078C124.17 30.9078 123.5 30.8255 122.907 30.6328L122.47 31.3203C122.237 31.6777 122.082 31.9255 122.082 32.2554C122.082 32.8331 122.547 33.0527 123.397 33.0527C124.763 33.0527 126.206 33.0253 127.547 33.0253C129.893 33.0253 131.156 34.125 131.156 36.0229L131.154 36.0238ZM144.256 35.3089C140.029 35.2814 138.07 33.0809 137.632 29.7531L139.411 29.3408C139.849 32.1191 141.344 33.6312 144.308 33.6312C147.014 33.6312 148.174 32.4759 148.174 30.7433C148.174 29.0109 147.092 28.1307 143.921 27.5253C139.72 26.7282 138.354 25.0499 138.354 22.6575C138.354 19.9623 140.184 18.2017 143.844 18.2017C147.504 18.2017 149.025 20.1268 149.644 23.0972L147.788 23.5095C147.272 21.117 146.344 19.8792 143.767 19.8792C141.344 19.8792 140.184 20.8969 140.184 22.5469C140.184 24.0598 141.009 25.0774 144.54 25.8198C148.896 26.7 150.03 28.3226 150.03 30.6055C150.03 33.411 148.355 35.3089 144.256 35.3089ZM161.263 35.0062V31.7061H161.082C160.438 33.9064 158.762 35.3089 156.623 35.3089C153.813 35.3089 152.576 33.3836 152.576 30.5781V22.217H154.355V30.193C154.355 32.1183 155.076 33.5757 157.241 33.5757C159.638 33.5757 161.236 31.9805 161.236 29.5879V22.2168H163.015V35.0056L161.263 35.0062ZM168.202 27.6351V35.0062H166.424V22.217H168.176V25.5171H168.383C169.053 23.2893 170.625 21.9143 172.842 21.9143C175.239 21.9143 176.451 23.4271 176.683 25.7375H176.941C177.482 23.4271 178.925 21.9143 181.453 21.9143C184.237 21.9143 185.523 23.8394 185.523 26.6451V35.0062H183.746V27.0582C183.746 25.133 182.946 23.6482 180.859 23.6482C178.41 23.6482 176.864 25.2434 176.864 27.6359V35.007H175.085V27.0589C175.085 25.1336 174.286 23.6488 172.198 23.6488C169.801 23.6488 168.203 25.244 168.203 27.6366L168.202 27.6351ZM190.58 27.6351V35.0062H188.801V22.217H190.553V25.5171H190.76C191.43 23.2893 193.002 21.9143 195.219 21.9143C197.617 21.9143 198.827 23.4271 199.06 25.7375H199.317C199.859 23.4271 201.302 21.9143 203.83 21.9143C206.612 21.9143 207.902 23.8394 207.902 26.6451V35.0062H206.122V27.0582C206.122 25.133 205.323 23.6482 203.236 23.6482C200.787 23.6482 199.24 25.2434 199.24 27.6359V35.007H197.461V27.0589C197.461 25.1336 196.663 23.6488 194.576 23.6488C192.177 23.6488 190.58 25.244 190.58 27.6366V27.6351ZM213.447 19.4944H211.257V17.5693H213.447V19.4944ZM213.216 35.0062H211.462V22.217H213.216V35.0062ZM217.716 31.2656V23.8396H215.757V22.217H217.716V18.5316H219.468V22.217H223.542V23.8396H219.468V31.1276C219.468 32.7229 220.063 33.5477 221.507 33.5477C222.175 33.5477 222.69 33.4379 223.414 33.2176L223.671 34.8951C222.872 35.1703 222.2 35.3081 221.197 35.3081C218.8 35.3081 217.716 33.6314 217.716 31.2656Z" fill="white"/>
</g>
<defs>
<clipPath id="clip0_3021_3929">
<rect width="223.2" height="48" fill="white" transform="translate(0.470703)"/>
</clipPath>
</defs>
</svg>
