<svg width="76" height="40" viewBox="0 0 76 40" fill="none" xmlns="http://www.w3.org/2000/svg">
<mask id="mask0_6329_37912" style="mask-type:luminance" maskUnits="userSpaceOnUse" x="3" y="2" width="70" height="36">
<path d="M72.2001 2H3.80005V38H72.2001V2Z" fill="white"/>
</mask>
<g mask="url(#mask0_6329_37912)">
<path d="M63.2003 24.0284C63.2003 24.9759 62.9913 25.7646 62.5804 26.3729C62.1739 26.9827 61.6628 27.4407 61.0602 27.7356C60.4632 28.0304 59.8677 28.1807 59.2923 28.1807C58.336 28.1807 57.5373 27.8515 56.9217 27.2031C56.309 26.5518 55.9998 25.663 55.9998 24.5608V14.6001H53.3V24.7254C53.3 26.0781 53.5248 27.2174 53.97 28.1134C54.4166 29.008 55.0422 29.6894 55.8281 30.1374C56.6097 30.5768 57.5144 30.8001 58.5164 30.8001C59.7275 30.8001 60.7467 30.5124 61.5455 29.9456C62.2669 29.4274 62.8223 28.7991 63.2003 28.0762V30.5954H65.9001V14.6001H63.2003V24.0298V24.0284Z" fill="currentColor"/>
<path d="M49.1862 20.9508C48.5324 20.4975 47.8364 20.134 47.1179 19.8706C46.4174 19.613 45.7727 19.407 45.1987 19.2584L42.9481 18.6668C42.5444 18.5637 42.0955 18.4269 41.6165 18.2606C41.1404 18.0899 40.678 17.8706 40.2456 17.6116C39.8208 17.3496 39.4668 17.0215 39.1926 16.6345C38.9305 16.2474 38.7979 15.7765 38.7979 15.2335C38.7979 14.5815 38.9908 13.9914 39.3719 13.4807C39.7621 12.9642 40.3149 12.5521 41.0109 12.2563C41.7204 11.9576 42.5625 11.806 43.513 11.806C44.8116 11.806 45.9203 12.0944 46.8106 12.6654C47.6858 13.2261 48.192 14.0253 48.3155 15.0407L48.3306 15.1702H51.2033L51.1973 15.0186C51.1611 13.9061 50.8026 12.898 50.1352 12.0238C49.4769 11.1526 48.5731 10.458 47.4508 9.95908C46.3315 9.4543 45.0345 9.19971 43.5989 9.19971C42.1633 9.19971 40.8708 9.45872 39.7154 9.96938C38.5629 10.4756 37.6305 11.1982 36.9435 12.1195C36.2596 13.0378 35.9132 14.1283 35.9132 15.36C35.9132 16.8479 36.4374 18.0693 37.4693 18.9905C38.4861 19.8985 39.8826 20.6064 41.6195 21.095L44.3325 21.8529C45.0963 22.0604 45.8179 22.3062 46.4762 22.5828C47.1194 22.8536 47.6451 23.2083 48.0383 23.6395C48.4194 24.0574 48.6138 24.6122 48.6138 25.2877C48.6138 26.0353 48.3863 26.6976 47.9359 27.2568C47.4809 27.816 46.8528 28.2605 46.0709 28.5783C45.2831 28.8918 44.3777 29.0507 43.3835 29.0507C42.5293 29.0507 41.7189 28.9256 40.9792 28.6799C40.2531 28.4297 39.643 28.0471 39.1685 27.5423C38.7046 27.036 38.4349 26.3856 38.3671 25.6085L38.3551 25.4746H35.3L35.3121 25.6321C35.3995 26.8315 35.7821 27.9014 36.4494 28.8094C37.1228 29.7174 38.0553 30.4341 39.2228 30.9403C40.3917 31.4436 41.7927 31.6997 43.385 31.6997C45.0933 31.6997 46.568 31.4157 47.7656 30.855C48.9768 30.2913 49.9108 29.5202 50.539 28.5621C51.1762 27.6026 51.5001 26.5151 51.5001 25.3275C51.5001 24.2958 51.2786 23.4114 50.8433 22.6976C50.4109 21.9883 49.8535 21.4011 49.1862 20.9493V20.9508Z" fill="currentColor"/>
<path d="M72.1986 10.999C72.1986 10.5039 72.0173 10.0755 71.6617 9.72516C71.3131 9.3763 70.8897 9.19971 70.3999 9.19971C69.9102 9.19971 69.484 9.37631 69.1285 9.72661C68.7784 10.0769 68.6013 10.5054 68.6013 11.0004C68.6013 11.4955 68.7784 11.9225 69.1298 12.2743C69.484 12.6231 69.9115 12.7997 70.4013 12.7997C70.8911 12.7997 71.2743 12.639 71.6119 12.3235L71.6271 12.309C71.6396 12.2974 71.6521 12.2858 71.6645 12.2728L71.7143 12.2221C72.0381 11.8805 72.2013 11.4694 72.2013 10.999H72.1986Z" fill="currentColor"/>
<path d="M72.1988 14.6001H69.4988V30.8001H72.1988V14.6001Z" fill="currentColor"/>
<path fill-rule="evenodd" clip-rule="evenodd" d="M26.1253 17.013C27.58 18.8568 28.4498 21.1885 28.4498 23.7249C28.4498 26.2613 27.5535 28.6642 26.0607 30.5183L25.9314 30.6785L25.8976 30.4753C25.8682 30.3032 25.8344 30.1282 25.7947 29.9532C25.0468 26.6366 22.6107 23.7931 18.6008 21.4896C15.8928 19.9381 14.3426 18.0721 13.9356 15.9495C13.6726 14.5775 13.868 13.1995 14.2457 12.0188C14.6233 10.8396 15.1846 9.85027 15.6621 9.25548L17.2226 7.33018C17.4959 6.99199 18.0087 6.99199 18.282 7.33018L26.1268 17.013H26.1253ZM28.5924 15.0892L18.1365 2.18467C17.9367 1.93844 17.5634 1.93844 17.3636 2.18467L6.90919 15.0892L6.8754 15.1322C4.95202 17.5426 3.80005 20.6055 3.80005 23.94C3.80005 31.7049 10.0463 38 17.75 38C25.4538 38 31.7001 31.7049 31.7001 23.94C31.7001 20.6055 30.5481 17.5426 28.6247 15.1337L28.5909 15.0907L28.5924 15.0892ZM9.41149 16.9715L10.346 15.816L10.3739 16.0296C10.396 16.1987 10.4239 16.3678 10.4562 16.5384C11.0616 19.7438 13.223 22.4151 16.8361 24.4843C19.9776 26.2895 21.8069 28.3646 22.3329 30.6399C22.5534 31.5893 22.5916 32.5237 22.496 33.341L22.4902 33.3914L22.4446 33.4137C21.0267 34.1123 19.4325 34.5054 17.7486 34.5054C11.8403 34.5054 7.05025 29.6788 7.05025 23.7234C7.05025 21.1662 7.93333 18.8182 9.40855 16.9685L9.41149 16.9715Z" fill="currentColor"/>
</g>
</svg>
