<?xml version="1.0" encoding="UTF-8" standalone="no"?>
<svg
   width="1050"
   height="646"
   viewBox="0 0 1050 646"
   fill="none"
   version="1.1"
   id="svg18"
   xmlns="http://www.w3.org/2000/svg"
   xmlns:svg="http://www.w3.org/2000/svg">
  <g
     opacity="0.5"
     clip-path="url(#clip0_3240_14541)"
     id="g18">
    <path
       style="baseline-shift:baseline;display:inline;overflow:visible;vector-effect:none;fill:#ffffff;fill-opacity:0.3;enable-background:accumulate;stop-color:#000000;stop-opacity:1;opacity:1"
       d="M 0,-1.8574219 V 0 h 1678 v -1.8574219 z"
       id="line1"
       transform="matrix(0.865966 -0.500103 -0.000108413 -1 -405.023 976.173)" />
    <path
       style="baseline-shift:baseline;display:inline;overflow:visible;vector-effect:none;fill:#ffffff;fill-opacity:0.3;enable-background:accumulate;stop-color:#000000;stop-opacity:1;opacity:1"
       d="M 0,-1.8574219 V 0 h 1678 v -1.8574219 z"
       id="line2"
       transform="matrix(0.865966 -0.500103 -0.000108413 -1 -405.037 848.673)" />
    <path
       style="baseline-shift:baseline;display:inline;overflow:visible;vector-effect:none;fill:#ffffff;fill-opacity:0.3;enable-background:accumulate;stop-color:#000000;stop-opacity:1;opacity:1"
       d="M 0,-1.8574219 V 0 h 1678 v -1.8574219 z"
       id="line3"
       transform="matrix(0.865966 -0.500103 -0.000108413 -1 -405.051 721.173)" />
    <path
       style="baseline-shift:baseline;display:inline;overflow:visible;vector-effect:none;fill:#ffffff;fill-opacity:0.3;enable-background:accumulate;stop-color:#000000;stop-opacity:1;opacity:1"
       d="M 0,-1.8574219 V 0 h 1678 v -1.8574219 z"
       id="line4"
       transform="matrix(0.865966 -0.500103 -0.000108413 -1 -405.065 593.673)" />
    <path
       style="baseline-shift:baseline;display:inline;overflow:visible;vector-effect:none;fill:#ffffff;fill-opacity:0.3;enable-background:accumulate;stop-color:#000000;stop-opacity:1;opacity:1"
       d="M 0,-1.8574219 V 0 h 1678 v -1.8574219 z"
       id="line5"
       transform="matrix(0.865966 -0.500103 -0.000108413 -1 -405.078 466.173)" />
    <path
       style="baseline-shift:baseline;display:inline;overflow:visible;vector-effect:none;fill:#ffffff;fill-opacity:0.3;enable-background:accumulate;stop-color:#000000;stop-opacity:1;opacity:1"
       d="M 0,-1.8574219 V 0 h 1678 v -1.8574219 z"
       id="line6"
       transform="matrix(0.865966 -0.500103 -0.000108413 -1 -405.092 338.673)" />
    <path
       style="baseline-shift:baseline;display:inline;overflow:visible;vector-effect:none;fill:#ffffff;fill-opacity:0.3;enable-background:accumulate;stop-color:#000000;stop-opacity:1;opacity:1"
       d="M 0,-1.8574219 V 0 h 1678 v -1.8574219 z"
       id="line7"
       transform="matrix(0.865966 -0.500103 -0.000108413 -1 -405.106 211.173)" />
    <path
       style="baseline-shift:baseline;display:inline;overflow:visible;vector-effect:none;fill:#ffffff;fill-opacity:0.3;enable-background:accumulate;stop-color:#000000;stop-opacity:1;opacity:1"
       d="M 0,-1.8574219 V 0 h 1678 v -1.8574219 z"
       id="line8"
       transform="matrix(0.865966 -0.500103 -0.000108413 -1 -405.12 83.6728)" />
    <path
       style="baseline-shift:baseline;display:inline;overflow:visible;vector-effect:none;fill:#ffffff;fill-opacity:0.3;enable-background:accumulate;stop-color:#000000;stop-opacity:1;opacity:1"
       d="M 0,-1.8574219 V 0 h 1025 v -1.8574219 z"
       id="line9"
       transform="matrix(-0.000108452 -1 -0.865966 0.500103 1048.07 137)" />
    <path
       style="baseline-shift:baseline;display:inline;overflow:visible;vector-effect:none;fill:#ffffff;fill-opacity:0.3;enable-background:accumulate;stop-color:#000000;stop-opacity:1;opacity:1"
       d="M 0,-1.8574219 V 0 h 1025 v -1.8574219 z"
       id="line10"
       transform="matrix(-0.000108452 -1 -0.865966 0.500103 936.226 201.59)" />
    <path
       style="baseline-shift:baseline;display:inline;overflow:visible;vector-effect:none;fill:#ffffff;fill-opacity:0.3;enable-background:accumulate;stop-color:#000000;stop-opacity:1;opacity:1"
       d="M 0,-1.8574219 V 0 h 1025 v -1.8574219 z"
       id="line11"
       transform="matrix(-0.000108452 -1 -0.865966 0.500103 824.383 266.181)" />
    <path
       style="baseline-shift:baseline;display:inline;overflow:visible;vector-effect:none;fill:#ffffff;fill-opacity:0.3;enable-background:accumulate;stop-color:#000000;stop-opacity:1;opacity:1"
       d="M 0,-1.8574219 V 0 h 1025 v -1.8574219 z"
       id="line12"
       transform="matrix(-0.000108452 -1 -0.865966 0.500103 712.54 330.771)" />
    <path
       style="baseline-shift:baseline;display:inline;overflow:visible;vector-effect:none;fill:#ffffff;fill-opacity:0.3;enable-background:accumulate;stop-color:#000000;stop-opacity:1;opacity:1"
       d="M 0,-1.8574219 V 0 h 1025 v -1.8574219 z"
       id="line13"
       transform="matrix(-0.000108452 -1 -0.865966 0.500103 600.697 395.361)" />
    <path
       style="baseline-shift:baseline;display:inline;overflow:visible;vector-effect:none;fill:#ffffff;fill-opacity:0.3;enable-background:accumulate;stop-color:#000000;stop-opacity:1;opacity:1"
       d="M 0,-1.8574219 V 0 h 1025 v -1.8574219 z"
       id="line14"
       transform="matrix(-0.000108452 -1 -0.865966 0.500103 488.854 459.951)" />
    <path
       style="baseline-shift:baseline;display:inline;overflow:visible;vector-effect:none;fill:#ffffff;fill-opacity:0.3;enable-background:accumulate;stop-color:#000000;stop-opacity:1;opacity:1"
       d="M 0,-1.8574219 V 0 h 1025 v -1.8574219 z"
       id="line15"
       transform="matrix(-0.000108452 -1 -0.865966 0.500103 377.012 524.541)" />
    <path
       style="baseline-shift:baseline;display:inline;overflow:visible;vector-effect:none;fill:#ffffff;fill-opacity:0.3;enable-background:accumulate;stop-color:#000000;stop-opacity:1;opacity:1"
       d="M 0,-1.8574219 V 0 h 1025 v -1.8574219 z"
       id="line16"
       transform="matrix(-0.000108452 -1 -0.865966 0.500103 265.169 589.132)" />
    <path
       style="baseline-shift:baseline;display:inline;overflow:visible;vector-effect:none;fill:#ffffff;fill-opacity:0.3;enable-background:accumulate;stop-color:#000000;stop-opacity:1;opacity:1"
       d="M 0,-1.8574219 V 0 h 1025 v -1.8574219 z"
       id="line17"
       transform="matrix(-0.000108452 -1 -0.865966 0.500103 153.326 653.722)" />
    <path
       style="baseline-shift:baseline;display:inline;overflow:visible;vector-effect:none;fill:#ffffff;fill-opacity:0.3;enable-background:accumulate;stop-color:#000000;stop-opacity:1;opacity:1"
       d="M 0,-1.8574219 V 0 h 1025 v -1.8574219 z"
       id="line18"
       transform="matrix(-0.000108452 -1 -0.865966 0.500103 41.4834 718.312)" />
  </g>
  <defs
     id="defs18">
    <clipPath
       id="clip0_3240_14541">
      <rect
         width="1681"
         height="1027"
         fill="white"
         transform="matrix(-0.865966 0.500103 0.00010849 1 1049.69 -889)"
         id="rect18" />
    </clipPath>
  </defs>
</svg>
