<?xml version="1.0" encoding="utf-8"?>
<!-- Generator: Adobe Illustrator 28.2.0, SVG Export Plug-In . SVG Version: 6.00 Build 0)  -->
<svg version="1.1" id="Layer_1" xmlns="http://www.w3.org/2000/svg" xmlns:xlink="http://www.w3.org/1999/xlink" x="0px" y="0px"
	 viewBox="0 0 20 21" style="enable-background:new 0 0 20 21;" xml:space="preserve">

<path d="M17.2,11L17.2,11L17.2,11C17.1,10.9,17.1,10.9,17.2,11L17,10.8l0,0c0,0,0,0-0.1,0c-0.3-0.2-0.7-0.4-1.1-0.4H3.3
	V5.5c0-0.5,0.2-1,0.5-1.3c0.7-0.6,1.5-0.5,2.1-0.1L5.5,6.3c-0.1,0.3,0,0.6,0.2,0.9c0.2,0.3,0.5,0.5,0.8,0.6c0.3,0.1,0.7,0,1-0.2
	l2.1-1.6c0.5-0.4,0.7-1.1,0.3-1.7c-0.2-0.3-0.6-0.6-1-0.6L6.6,3.5C5.7,2.7,4.1,2.5,3.1,3.7C2.6,4.1,2.4,4.8,2.4,5.5v5.1
	c0,0.1,0,0.3,0,0.4l0.2,1.7c0.2,1.4,0.9,2.7,2,3.6c0,0.1-0.1,0.4-0.3,1.2c-0.1,0.2,0.1,0.5,0.3,0.6c0,0,0.1,0,0.1,0
	c0.2,0,0.4-0.1,0.4-0.4l0.2-0.9c0.7,0.4,1.5,0.6,2.3,0.6h4.8c0.7,0,1.5-0.2,2.2-0.5l0.2,0.8c0.1,0.2,0.3,0.4,0.6,0.3
	c0.1,0,0.2-0.1,0.3-0.2c0.1-0.1,0.1-0.2,0.1-0.3l-0.3-1.1c1.2-0.9,1.9-2.2,2.1-3.7l0-0.3C17.7,11.9,17.5,11.3,17.2,11z M16.7,12.3
	l0,0.4c-0.3,2.2-2.1,3.9-4.2,3.9H7.7c-2.1,0-3.9-1.7-4.2-3.9l-0.2-1.4h12.5c0.2,0,0.4,0.1,0.6,0.3C16.7,11.7,16.7,12,16.7,12.3z
	 M6.4,6.4l0.3-2l2.1,0.1c0.1,0,0.2,0.1,0.3,0.1l0,0C9.3,4.8,9.2,5,9.1,5.1L6.9,6.7C6.9,6.8,6.8,6.8,6.7,6.8c-0.1,0-0.2-0.1-0.2-0.2
	C6.4,6.6,6.4,6.5,6.4,6.4z"/>
</svg>
