<?xml version="1.0" encoding="utf-8"?>
<!-- Generator: Adobe Illustrator 28.2.0, SVG Export Plug-In . SVG Version: 6.00 Build 0)  -->
<svg version="1.1" id="Layer_1" xmlns="http://www.w3.org/2000/svg" xmlns:xlink="http://www.w3.org/1999/xlink" x="0px" y="0px"
	 viewBox="0 0 50 50" style="enable-background:new 0 0 50 50;" xml:space="preserve">
<style type="text/css">
	.st0{fill:#272C58;}
</style>
<g>
	<path class="st0" d="M38.2,29.1l-4.2-11.8h-13c-0.4,0-0.8,0.3-0.8,0.8s0.3,0.8,0.8,0.8h12l1.4,3.9H20.9c-5.1,0-9.3,4.2-9.3,9.3
		l0.1,0.8h23.9c0.9,0,1.7-0.4,2.2-1.2C38.3,30.9,38.5,29.9,38.2,29.1z M36.6,30.7c-0.2,0.3-0.6,0.5-1,0.5H13.2
		c0.3-4,3.7-7.1,7.7-7.1h13.9l1.9,5.4C36.9,30,36.8,30.4,36.6,30.7z"/>
	<circle class="st0" cx="25.4" cy="27.8" r="2"/>
</g>
</svg>
